<svg class="icon icon--youtube" viewBox="0 0 32 32" version="1.1" xmlns="http://www.w3.org/2000/svg" xmlns:xlink="http://www.w3.org/1999/xlink"><title>YouTube</title><g stroke="none" stroke-width="1" fill="none" fill-rule="evenodd"><g fill-rule="nonzero"><path d="M16,32 C7.163444,32 0,24.836556 0,16 C0,7.163444 7.163444,0 16,0 C24.836556,0 32,7.163444 32,16 C32,24.836556 24.836556,32 16,32 Z M9,9 C7.895431,9 7,9.8954305 7,11 L7,21 C7,22.1045695 7.895431,23 9,23 L24,23 C25.104569,23 26,22.1045695 26,21 L26,11 C26,9.8954305 25.104569,9 24,9 L9,9 Z M14.742187,12.668457 L19.826427,16.0183 L14.742187,19.1025391 L14.742187,12.668457 Z"></path></g></g></svg>